<svg xmlns="http://www.w3.org/2000/svg" xmlns:xlink="http://www.w3.org/1999/xlink" id="Layer_1" x="0" y="0" enable-background="new 0 0 27 16" version="1.1" viewBox="0 0 27 16" xml:space="preserve"><g><path fill="#FFF" d="M4,15.5c-1.9,0-3.5-1.6-3.5-3.5V4c0-1.9,1.6-3.5,3.5-3.5h19c1.9,0,3.5,1.6,3.5,3.5v8c0,1.9-1.6,3.5-3.5,3.5 H4z"/><path d="M23,1c1.7,0,3,1.3,3,3v8c0,1.7-1.3,3-3,3H4c-1.7,0-3-1.3-3-3V4c0-1.7,1.3-3,3-3H23 M23,0H4C1.8,0,0,1.8,0,4v8 c0,2.2,1.8,4,4,4h19c2.2,0,4-1.8,4-4V4C27,1.8,25.2,0,23,0L23,0z"/></g></svg>